# xmcd CD database file
#
# Track frame offsets:
#	150
#	12335
#	26099
#	54363
#	64744
#	77787
#	90047
#	103149
#	120601
#	136862
#	148138
#	160461
#	181288
#	192742
#	215685
#	231011
#	243207
#	257510
#	269379
#	286647
#	299896
#	317333
#
# Disc length: 4469 seconds
#
# Revision: 1
# Processed by: cddbd v1.5.2PL0 Copyright (c) Steve Scherf et al.
# Submitted via: CDex 1.70beta2
#
DISCID=3f117316
DTITLE=Various Artist - Country Series 06
DYEAR=1900
DGENRE=Country
TTITLE0=Tracy Lawrence - Renegades, Rebels and Rogues
TTITLE1=Mel McDaniel - Baby's Got Her Blue Jeans On
TTITLE2=Bellamy Brothers - Rip Off the Knob
TTITLE3=Ken Mellons - Rub-A Dubbin
TTITLE4=John Michael Montgomery - Be My Baby Tonight
TTITLE5=Tammy Wynette - Stand by Your Man
TTITLE6=George Strait - Lovebug
TTITLE7=Trisha Yearwood - She's in Love with the Boy
TTITLE8=Mark Chestnutt - Wrong Place, Wrong Time
TTITLE9=Hank Williams, Jr - Texas Women
TTITLE10=Charlie Rich - The Most Beautiful Girl
TTITLE11=Sawyer Brown - Six Days on the Road
TTITLE12=Willie Nelson - The Party's Over
TTITLE13=Joe Diffie - Third Rock from the Sun
TTITLE14=Tim Mensy - This Ol' Heart
TTITLE15=Oakridge Boys - Elvira
TTITLE16=Rick Trevino - Doctor Time
TTITLE17=Steve Earle - Guitar Town
TTITLE18=Tracy Byrd - Holdin' Heaven
TTITLE19=George Strait - Blue Clear Sky
TTITLE20=Ray Price - For the Good Times
TTITLE21=Vince Gill - You Better Think Twice
EXTD=
EXTT0=
EXTT1=
EXTT2=
EXTT3=
EXTT4=
EXTT5=
EXTT6=
EXTT7=
EXTT8=
EXTT9=
EXTT10=
EXTT11=
EXTT12=
EXTT13=
EXTT14=
EXTT15=
EXTT16=
EXTT17=
EXTT18=
EXTT19=
EXTT20=
EXTT21=
PLAYORDER=
